<svg id="Layer_1" data-name="Layer 1" xmlns="http://www.w3.org/2000/svg" xmlns:xlink="http://www.w3.org/1999/xlink" viewBox="0 0 300 300"><defs><style>.cls-1{fill:none;}.cls-2{clip-path:url(#clip-path);}.cls-3{clip-path:url(#clip-path-2);}.cls-4{fill:#0fbe00;}.cls-5{clip-path:url(#clip-path-3);}.cls-6{clip-path:url(#clip-path-5);}.cls-7{clip-path:url(#clip-path-7);}.cls-8{clip-path:url(#clip-path-8);}</style><clipPath id="clip-path"><circle class="cls-1" cx="150" cy="125.45" r="45"/></clipPath><clipPath id="clip-path-2"><rect class="cls-1" x="-2627.73" y="-6726.82" width="3387.27" height="7330.91"/></clipPath><clipPath id="clip-path-3"><path class="cls-1" d="M196.06,186.82H103.94A46.33,46.33,0,0,0,64.09,209c18.64,26.12,50.19,43.32,85.91,43.32s67.27-17.2,85.91-43.32A46.36,46.36,0,0,0,196.06,186.82Z"/></clipPath><clipPath id="clip-path-5"><path class="cls-1" d="M150,262.5A112.5,112.5,0,1,1,262.5,150,112.63,112.63,0,0,1,150,262.5ZM150,15A135,135,0,1,0,285,150,135,135,0,0,0,150,15Z"/></clipPath><clipPath id="clip-path-7"><path class="cls-1" d="M259.18,470.32q0,14.25,0,28.5,0,12.92,0,25.82c0,19.54,0,39.73,0,59.58a17.39,17.39,0,0,1-4.89,12.43,17.15,17.15,0,0,1-12.39,5q-58.36,0-116.73,0l-44.37,0H73.72c-5.33,0-10.66,0-16,0-9.78-.08-16.89-7.22-16.9-17,0-39.33,0-79.3,0-118V397.09c0-8.76,7.63-16.45,16.3-16.45H176.86q33.06,0,66.11,0a16.49,16.49,0,0,1,16.16,16.29q0,5.25,0,10.53C259.2,428.5,259.2,449.71,259.18,470.32Zm17.41,28.5q0-14.25,0-28.49c0-24.06,0-48.95-.05-73.43a33.92,33.92,0,0,0-10-23.91A33.2,33.2,0,0,0,243,363q-33.08,0-66.14,0H57.12c-18.27,0-33.7,15.61-33.72,34.07v69.58c0,38.68,0,78.66,0,118a34.63,34.63,0,0,0,9.92,24.56,32.15,32.15,0,0,0,5.12,4.23,34.57,34.57,0,0,0,17.14,5.75l1.88.07h0l.83.06c0,2.58,0,5,0,7.35,0,4.41,1.9,6.31,6.3,6.31H96.16c4.2,0,6.09-1.94,6.14-6.24,0-2.44,0-4.88,0-7.43h95.42c0,2.72-.05,5.32,0,7.91.1,3.74,2,5.72,5.69,5.74q16.2.06,32.41,0c3.78,0,5.74-2.05,5.82-5.89,0-2.49,0-5,0-7.81h.25c.9,0,1.81,0,2.7-.1a34.31,34.31,0,0,0,22-10.09,35.1,35.1,0,0,0,10-24.91c0-19.85,0-40,0-59.53Q276.6,511.75,276.59,498.82Z"/></clipPath><clipPath id="clip-path-8"><path class="cls-1" d="M190.47,492.39a6.15,6.15,0,0,1-6.12,6.19H141.7a22.11,22.11,0,0,1-43-8.65,22.43,22.43,0,0,1,22.65-21.19,22.18,22.18,0,0,1,20.34,15h42.65a6.15,6.15,0,0,1,6.12,6.19ZM120.83,538c-25.54,0-46.31-21-46.31-46.87s20.78-46.86,46.31-46.86a46.42,46.42,0,0,1,44.27,33.15h-12a35.44,35.44,0,1,0,0,27.43h12A46.45,46.45,0,0,1,120.83,538Zm117.79,1.62c-5.79-.08-9.49-3.79-9.51-9.58s0-11.71,0-17.56c0-11.32,1.63-13.1,12.91-13.64,1.94-.09,2.75-.69,2.71-2.75-.11-4.82,0-9.63,0-14.44,0-5.89,0-5.89-5.76-6.12-6.38-.27-9.83-3.89-9.83-10.32,0-7,0-14,0-21,0-5.75,3.72-9.55,9.43-9.69,1.86,0,3.71,0,5.94,0,.09-1.32.21-2.23.21-3.15q0-14.26,0-28.54c0-5.47-2.1-7.55-7.51-7.55q-87.08,0-174.14,0c-5.71,0-7.78,2.13-7.78,8q0,87.81,0,175.62c0,6,2,8.13,8,8.13H237.36c5.12,0,7.31-2.23,7.33-7.45q0-18.36,0-36.69c0-1-.14-2-.24-3.23C242.31,539.64,240.46,539.66,238.62,539.64Z"/></clipPath></defs><g class="cls-2"><g class="cls-3"><rect class="cls-4" x="64.09" y="39.55" width="171.82" height="171.82"/></g></g><g class="cls-5"><g class="cls-3"><rect class="cls-4" x="23.18" y="145.91" width="253.64" height="147.27"/></g></g><g class="cls-6"><g class="cls-3"><rect class="cls-4" x="-25.91" y="-25.91" width="351.82" height="351.82"/></g></g></svg>