<svg id="Layer_1" data-name="Layer 1" xmlns="http://www.w3.org/2000/svg" xmlns:xlink="http://www.w3.org/1999/xlink" viewBox="0 0 300 300"><defs><style>.cls-1,.cls-2{fill:none;}.cls-2{clip-rule:evenodd;}.cls-3{clip-path:url(#clip-path);}.cls-4{clip-path:url(#clip-path-2);}.cls-5{clip-path:url(#clip-path-3);}.cls-6{isolation:isolate;}.cls-7{clip-path:url(#clip-path-5);}.cls-8{fill:#0fbe00;}</style><clipPath id="clip-path"><path class="cls-1" d="M259.18-233.68q0,14.25,0,28.5,0,12.92,0,25.82c0,19.54,0,39.73,0,59.58a17.39,17.39,0,0,1-4.89,12.43,17.15,17.15,0,0,1-12.39,5q-58.36,0-116.73,0l-44.37,0H73.72c-5.33,0-10.66,0-16,0-9.78-.08-16.89-7.22-16.9-17,0-39.33,0-79.3,0-118v-69.58c0-8.76,7.63-16.45,16.3-16.45H176.86q33.06,0,66.11,0a16.49,16.49,0,0,1,16.16,16.29q0,5.25,0,10.53C259.2-275.5,259.2-254.29,259.18-233.68Zm17.41,28.5q0-14.25,0-28.49c0-24.06,0-49-.05-73.43a33.92,33.92,0,0,0-10-23.91A33.2,33.2,0,0,0,243-341q-33.08,0-66.14,0H57.12c-18.27,0-33.7,15.61-33.72,34.07v69.58c0,38.68,0,78.66,0,118a34.63,34.63,0,0,0,9.92,24.56,32.15,32.15,0,0,0,5.12,4.23A34.57,34.57,0,0,0,55.59-84.8l1.88.07h0l.83.06c0,2.58,0,5,0,7.35,0,4.41,1.9,6.31,6.3,6.31q15.75,0,31.51,0c4.2,0,6.09-1.94,6.14-6.24,0-2.44,0-4.88,0-7.43h95.42c0,2.72-.05,5.32,0,7.91.1,3.74,2,5.72,5.69,5.74q16.2.06,32.41,0c3.78,0,5.74-2,5.82-5.89,0-2.49,0-5,0-7.81h.25c.9,0,1.81,0,2.7-.1a34.52,34.52,0,0,0,16.95-5.87,34.4,34.4,0,0,0,5.07-4.22,35.1,35.1,0,0,0,10-24.91c0-19.85,0-40,0-59.53Q276.6-192.25,276.59-205.18Z"/></clipPath><clipPath id="clip-path-2"><path class="cls-1" d="M190.47-211.61a6.15,6.15,0,0,1-6.12,6.19H141.7a22.16,22.16,0,0,1-20.87,15,22.3,22.3,0,0,1-22.12-23.64,22.43,22.43,0,0,1,22.65-21.19,22.18,22.18,0,0,1,20.34,15h42.65a6.15,6.15,0,0,1,6.12,6.19ZM120.83-166c-25.54,0-46.31-21-46.31-46.87s20.78-46.86,46.31-46.86a46.42,46.42,0,0,1,44.27,33.15h-12a35.06,35.06,0,0,0-32.28-21.72,35.27,35.27,0,0,0-35,35.44,35.26,35.26,0,0,0,35,35.43,35.05,35.05,0,0,0,32.28-21.72h12A46.45,46.45,0,0,1,120.83-166Zm117.79,1.62c-5.79-.08-9.49-3.79-9.51-9.58s0-11.71,0-17.56c0-11.32,1.63-13.1,12.91-13.64,1.94-.09,2.75-.69,2.71-2.75-.11-4.82,0-9.63,0-14.44,0-5.89,0-5.89-5.76-6.12-6.38-.27-9.83-3.89-9.83-10.32,0-7,0-14,0-21,0-5.75,3.72-9.55,9.43-9.69,1.86,0,3.71,0,5.94,0,.09-1.32.21-2.23.21-3.15q0-14.26,0-28.54c0-5.47-2.1-7.55-7.51-7.55q-87.08,0-174.14,0c-5.71,0-7.78,2.13-7.78,8q0,87.81,0,175.62c0,6,2,8.13,8,8.13H237.36c5.12,0,7.31-2.23,7.33-7.45q0-18.36,0-36.69c0-1-.14-2-.24-3.23C242.31-164.36,240.46-164.34,238.62-164.36Z"/></clipPath><clipPath id="clip-path-3"><rect class="cls-1" x="15" y="15" width="270" height="270"/></clipPath><clipPath id="clip-path-5"><path class="cls-2" d="M15,150.07C15,76.07,75.94,15,149.8,15S285,76.07,285,150.07,223.93,285,149.93,285,15,223.93,15,150.07Zm141.33,72.81v-9.52c23.1-2.09,40.19-15.14,40.19-36.8,0-19.32-12.66-29.63-37.06-35.24l-3.13-.65v-35c8.87,1.56,15.14,6.91,17.75,15.13,2.08,4.83,5.22,7.57,10.31,7.57,5.74,0,9.65-3.91,9.65-9.26a20.67,20.67,0,0,0-.65-5c-3.91-14.62-18.14-25.06-37.06-27V77.64a6.38,6.38,0,0,0-6.53-6.53,6.31,6.31,0,0,0-6.52,6.53v9.52C121,89.25,105,102.83,105,122.66c0,18.53,12.4,29.23,35.89,34.84l2.35.52V195c-11.22-1.7-17.88-7.7-20.1-15.93-2-5.21-5.22-7.69-10.18-7.69-6,0-9.91,3.91-9.91,9.65a17.44,17.44,0,0,0,.91,5c4,15,19,25.58,39.28,27.28v9.65a6.31,6.31,0,0,0,6.52,6.53A6.38,6.38,0,0,0,156.33,222.88Zm-14.09-85.74c-11.23-3-16.19-8.35-16.19-15.65,0-7.7,6.66-14.23,17.23-15.92v31.84Zm15.39,24.41c13.18,3.91,17.88,8.35,17.88,16.57,0,8.88-6.39,15.27-19.18,16.84v-33.8Z"/></clipPath></defs><g class="cls-5"><g class="cls-6"><g class="cls-5"><g class="cls-7"><g class="cls-5"><rect class="cls-8" x="-25.91" y="-25.91" width="351.82" height="351.82"/></g></g></g></g></g></svg>